<?xml version="1.0" encoding="UTF-8"?>
<svg width="38px" height="38px" viewBox="0 0 38 38" version="1.1" xmlns="http://www.w3.org/2000/svg" xmlns:xlink="http://www.w3.org/1999/xlink">
    <title>Group 13</title>
    <defs>
        <linearGradient x1="50%" y1="0%" x2="50%" y2="100%" id="linearGradient-1">
            <stop stop-color="#0EA088" offset="0%"></stop>
            <stop stop-color="#006655" offset="100%"></stop>
        </linearGradient>
    </defs>
    <g id="Version-3" stroke="none" stroke-width="1" fill="none" fill-rule="evenodd">
        <g id="Baseball-V5" transform="translate(-386.000000, -7641.000000)">
            <g id="Group-13" transform="translate(386.000000, 7641.000000)">
                <rect id="Rectangle" fill="url(#linearGradient-1)" x="0" y="0" width="38" height="38"></rect>
                <path d="M29.4929858,14.8632978 C30.9127179,14.8632978 32.0633251,13.7119451 32.0633251,12.2912929 L24.9518487,12.2912929 C21.939654,12.2912929 19.4066467,14.3782242 18.7173969,17.1827298 L14.8515798,17.1827298 C13.4318476,17.1827298 12.1296835,18.3346401 12.1296835,19.7547346 L18.3797369,19.7547346 C17.9061213,21.3766644 16.3638063,22.5687187 14.5930415,22.5687187 L11.5964482,22.5687187 C9.49526686,22.5687187 7.78189306,20.8759793 7.7462326,18.7823573 C7.71001494,16.6274043 9.52981293,14.8632978 11.6839278,14.8632978 L14.0703928,14.8632978 C15.490125,14.8632978 16.6412893,13.7119451 16.6412893,12.2912929 L11.5964482,12.2912929 C8.09280772,12.2912929 5.23607033,15.1130828 5.17645049,18.6044971 C5.11515907,22.1990592 8.11732429,25.141281 11.7101159,25.141281 L13.3148367,25.141281 L13.4914675,25.141281 L14.680521,25.141281 C16.7895031,25.141281 18.6627918,24.1176086 19.8340151,22.5413984 C21.0347697,24.1181662 22.9476193,25.141281 25.0655164,25.141281 L29.4929858,25.141281 C30.9127179,25.141281 32.0633251,23.9893708 32.0633251,22.5687187 L24.9518487,22.5687187 C22.8506674,22.5687187 21.1372936,20.8759793 21.1021903,18.7823573 C21.0654155,16.6274043 22.8852135,14.8632978 25.0393283,14.8632978 L29.4929858,14.8632978 Z" id="Fill-77" fill="#FFFFFF"></path>
            </g>
        </g>
    </g>
</svg>